<svg xmlns="http://www.w3.org/2000/svg" xmlns:xlink="http://www.w3.org/1999/xlink" id="Layer_1" data-name="Layer 1" viewBox="0 0 899 1416"><defs><style>.cls-1,.cls-4,.cls-5,.cls-7{fill:none}.cls-2,.cls-8{fill:#f48914}.cls-3{clip-path:url(#clip-path)}.cls-4,.cls-5,.cls-7,.cls-8{stroke:#333}.cls-4,.cls-5{stroke-linecap:round}.cls-4{stroke-width:6.9px}.cls-5{stroke-width:12.52px}.cls-6{fill:#333}.cls-7{stroke-width:11.05px;opacity:.15;isolation:isolate}.cls-8{stroke-miterlimit:10;stroke-width:26.97px}</style><clipPath id="clip-path"><path d="M872,1310h0a183,183,0,0,0-111-168l-117-50a496,496,0,0,0-390,0l-117,50A183,183,0,0,0,27,1310v106H872Z" class="cls-1"/></clipPath></defs><title>spacecadet-F48914</title><g id="uniform"><path d="M872,1310h0a183,183,0,0,0-111-168l-117-50a496,496,0,0,0-390,0l-117,50A183,183,0,0,0,27,1310v106H872Z" class="cls-2"/><g class="cls-3"><path d="M-56,1335l42-42,42,42-42,42Z" class="cls-4"/><path d="M-14,1293l42-42,42,42-42,42Z" class="cls-4"/><path d="M28,1251l42-42,42,42-42,42Z" class="cls-4"/><path d="M70,1209l42-42,42,42-42,42Z" class="cls-4"/><path d="M111,1168l42-42,42,42-42,42Z" class="cls-4"/><path d="M153,1126l42-42,42,42-42,42Z" class="cls-4"/><path d="M195,1084l42-42,42,42-42,42Z" class="cls-4"/><path d="M236,1043l42-42,42,42-42,42Z" class="cls-4"/><path d="M278,1001l42-42,42,42-42,42Z" class="cls-4"/><path d="M320,959l42-42,42,42-42,42Z" class="cls-4"/><path d="M361,918l42-42,42,42-42,42Z" class="cls-4"/><path d="M403,876l42-42,42,42-42,42Z" class="cls-4"/><path d="M-14,1376l42-42,42,42-42,42Z" class="cls-4"/><path d="M28,1335l42-42,42,42-42,42Z" class="cls-4"/><path d="M70,1293l42-42,42,42-42,42Z" class="cls-4"/><path d="M111,1251l42-42,42,42-42,42Z" class="cls-4"/><path d="M153,1209l42-42,42,42-42,42Z" class="cls-4"/><path d="M195,1168l42-42,42,42-42,42Z" class="cls-4"/><path d="M236,1126l42-42,42,42-42,42Z" class="cls-4"/><path d="M278,1084l42-42,42,42-42,42Z" class="cls-4"/><path d="M320,1043l42-42,42,42-42,42Z" class="cls-4"/><path d="M361,1001l42-42,42,42-42,42Z" class="cls-4"/><path d="M403,959l42-42,42,42-42,42Z" class="cls-4"/><path d="M445,918l42-42,42,42-42,42Z" class="cls-4"/><path d="M28,1418l42-42,42,42-42,42Z" class="cls-4"/><path d="M70,1376l42-42,42,42-42,42Z" class="cls-4"/><path d="M111,1335l42-42,42,42-42,42Z" class="cls-4"/><path d="M153,1293l42-42,42,42-42,42Z" class="cls-4"/><path d="M195,1251l42-42,42,42-42,42Z" class="cls-4"/><path d="M236,1209l42-42,42,42-42,42Z" class="cls-4"/><path d="M278,1168l42-42,42,42-42,42Z" class="cls-4"/><path d="M320,1126l42-42,42,42-42,42Z" class="cls-4"/><path d="M361,1084l42-42,42,42-42,42Z" class="cls-4"/><path d="M403,1043l42-42,42,42-42,42Z" class="cls-4"/><path d="M445,1001l42-42,42,42-42,42Z" class="cls-4"/><path d="M487,959l42-42,42,42-42,42Z" class="cls-4"/><path d="M70,1460l42-42,42,42-42,42Z" class="cls-4"/><path d="M111,1418l42-42,42,42-42,42Z" class="cls-4"/><path d="M153,1376l42-42,42,42-42,42Z" class="cls-4"/><path d="M195,1335l42-42,42,42-42,42Z" class="cls-4"/><path d="M236,1293l42-42,42,42-42,42Z" class="cls-4"/><path d="M278,1251l42-42,42,42-42,42Z" class="cls-4"/><path d="M320,1209l42-42,42,42-42,42Z" class="cls-4"/><path d="M361,1168l42-42,42,42-42,42Z" class="cls-4"/><path d="M403,1126l42-42,42,42-42,42Z" class="cls-4"/><path d="M445,1084l42-42,42,42-42,42Z" class="cls-4"/><path d="M487,1043l42-42,42,42-42,42Z" class="cls-4"/><path d="M528,1001l42-42,42,42-42,42Z" class="cls-4"/><path d="M153,1460l42-42,42,42-42,42Z" class="cls-4"/><path d="M195,1418l42-42,42,42-42,42Z" class="cls-4"/><path d="M236,1376l42-42,42,42-42,42Z" class="cls-4"/><path d="M278,1335l42-42,42,42-42,42Z" class="cls-4"/><path d="M320,1293l42-42,42,42-42,42Z" class="cls-4"/><path d="M361,1251l42-42,42,42-42,42Z" class="cls-4"/><path d="M403,1209l42-42,42,42-42,42Z" class="cls-4"/><path d="M445,1168l42-42,42,42-42,42Z" class="cls-4"/><path d="M487,1126l42-42,42,42-42,42Z" class="cls-4"/><path d="M528,1084l42-42,42,42-42,42Z" class="cls-4"/><path d="M570,1043l42-42,42,42-42,42Z" class="cls-4"/><path d="M236,1460l42-42,42,42-42,42Z" class="cls-4"/><path d="M278,1418l42-42,42,42-42,42Z" class="cls-4"/><path d="M320,1376l42-42,42,42-42,42Z" class="cls-4"/><path d="M361,1335l42-42,42,42-42,42Z" class="cls-4"/><path d="M403,1293l42-42,42,42-42,42Z" class="cls-4"/><path d="M445,1251l42-42,42,42-42,42Z" class="cls-4"/><path d="M487,1209l42-42,42,42-42,42Z" class="cls-4"/><path d="M528,1168l42-42,42,42-42,42Z" class="cls-4"/><path d="M570,1126l42-42,42,42-42,42Z" class="cls-4"/><path d="M612,1084l42-42,42,42-42,42Z" class="cls-4"/><path d="M320,1460l42-42,42,42-42,42Z" class="cls-4"/><path d="M361,1418l42-42,42,42-42,42Z" class="cls-4"/><path d="M403,1376l42-42,42,42-42,42Z" class="cls-4"/><path d="M445,1335l42-42,42,42-42,42Z" class="cls-4"/><path d="M487,1293l42-42,42,42-42,42Z" class="cls-4"/><path d="M528,1251l42-42,42,42-42,42Z" class="cls-4"/><path d="M570,1209l42-42,42,42-42,42Z" class="cls-4"/><path d="M612,1168l42-42,42,42-42,42Z" class="cls-4"/><path d="M653,1126l42-42,42,42-42,42Z" class="cls-4"/><path d="M403,1460l42-42,42,42-42,42Z" class="cls-4"/><path d="M445,1418l42-42,42,42-42,42Z" class="cls-4"/><path d="M487,1376l42-42,42,42-42,42Z" class="cls-4"/><path d="M528,1335l42-42,42,42-42,42Z" class="cls-4"/><path d="M570,1293l42-42,42,42-42,42Z" class="cls-4"/><path d="M612,1251l42-42,42,42-42,42Z" class="cls-4"/><path d="M653,1209l42-42,42,42-42,42Z" class="cls-4"/><path d="M695,1168l42-42,42,42-42,42Z" class="cls-4"/><path d="M487,1460l42-42,42,42-42,42Z" class="cls-4"/><path d="M528,1418l42-42,42,42-42,42Z" class="cls-4"/><path d="M570,1376l42-42,42,42-42,42Z" class="cls-4"/><path d="M612,1335l42-42,42,42-42,42Z" class="cls-4"/><path d="M653,1293l42-42,42,42-42,42Z" class="cls-4"/><path d="M695,1251l42-42,42,42-42,42Z" class="cls-4"/><path d="M737,1209l42-42,42,42-42,42Z" class="cls-4"/><path d="M570,1460l42-42,42,42-42,42Z" class="cls-4"/><path d="M612,1418l42-42,42,42-42,42Z" class="cls-4"/><path d="M653,1376l42-42,42,42-42,42Z" class="cls-4"/><path d="M695,1335l42-42,42,42-42,42Z" class="cls-4"/><path d="M737,1293l42-42,42,42-42,42Z" class="cls-4"/><path d="M778,1251l42-42,42,42-42,42Z" class="cls-4"/><path d="M653,1460l42-42,42,42-42,42Z" class="cls-4"/><path d="M695,1418l42-42,42,42-42,42Z" class="cls-4"/><path d="M737,1376l42-42,42,42-42,42Z" class="cls-4"/><path d="M778,1335l42-42,42,42-42,42Z" class="cls-4"/><path d="M820,1293l42-42,42,42-42,42Z" class="cls-4"/><path d="M737,1460l42-42,42,42-42,42Z" class="cls-4"/><path d="M778,1418l42-42,42,42-42,42Z" class="cls-4"/><path d="M820,1376l42-42,42,42-42,42Z" class="cls-4"/><path d="M862,1335l42-42,42,42-42,42Z" class="cls-4"/></g><path d="M208,1254l-9,142m492-142,5,142" class="cls-5"/><path d="M450,1079a469,469,0,0,1,184,38l117,50a156,156,0,0,1,95,143v79H54v-79a156,156,0,0,1,95-143l117-50a469,469,0,0,1,184-38Zm0-27a497,497,0,0,0-195,40l-117,50A183,183,0,0,0,27,1310v106H872V1310a183,183,0,0,0-111-168l-117-50a496,496,0,0,0-195-40Z" class="cls-6"/><path d="M548,1084c0,1,0,20,0,21,0,54-45,97-102,97s-102-44-102-97v-21" class="cls-7"/><polygon points="386 1400 273 1091 40 953 181 1091 12 1093 287 1401 386 1400" class="cls-8"/><polygon points="514 1399 626 1091 859 953 718 1091 887 1093 612 1401 514 1399 514 1399" class="cls-8"/></g></svg>